<?xml version="1.0" encoding="UTF-8"?>
<svg xmlns="http://www.w3.org/2000/svg" xmlns:xlink="http://www.w3.org/1999/xlink" width="200px" height="24px" viewBox="0 0 200 24" version="1.1">
<g id="surface1">
<path style=" stroke:none;fill-rule:evenodd;fill:rgb(100%,100%,100%);fill-opacity:1;" d="M 55.339844 10.832031 C 55.242188 10.832031 55.171875 10.785156 55.128906 10.6875 C 55.09375 10.597656 55.070312 10.453125 55.058594 10.257812 C 55.054688 10.085938 55.035156 9.839844 55.003906 9.519531 C 54.96875 9.199219 54.933594 8.84375 54.890625 8.457031 C 54.847656 8.0625 54.800781 7.667969 54.753906 7.28125 C 54.707031 6.890625 54.660156 6.539062 54.609375 6.222656 C 54.566406 5.910156 54.535156 5.671875 54.507812 5.511719 C 54.496094 5.4375 54.472656 5.382812 54.433594 5.351562 C 54.398438 5.316406 54.335938 5.296875 54.25 5.296875 C 54.164062 5.296875 54.035156 5.3125 53.859375 5.34375 C 53.6875 5.375 53.445312 5.425781 53.128906 5.496094 C 52.8125 5.566406 52.566406 5.625 52.402344 5.671875 C 52.238281 5.71875 52.113281 5.742188 52.027344 5.742188 C 52 5.742188 51.972656 5.738281 51.945312 5.726562 C 51.921875 5.71875 51.894531 5.703125 51.875 5.679688 C 51.859375 5.652344 51.851562 5.621094 51.851562 5.585938 C 51.851562 5.53125 51.882812 5.484375 51.945312 5.441406 C 52.011719 5.390625 52.109375 5.339844 52.242188 5.289062 C 52.328125 5.257812 52.496094 5.207031 52.746094 5.144531 C 53.003906 5.078125 53.265625 5.015625 53.53125 4.953125 C 53.800781 4.882812 54.003906 4.828125 54.136719 4.792969 C 54.214844 4.769531 54.265625 4.730469 54.296875 4.671875 C 54.332031 4.613281 54.347656 4.515625 54.347656 4.382812 C 54.347656 4.199219 54.335938 4.007812 54.316406 3.816406 L 54.25 3.238281 C 54.230469 3.042969 54.21875 2.84375 54.21875 2.648438 C 54.21875 2.078125 54.308594 1.597656 54.492188 1.207031 C 54.675781 0.8125 54.957031 0.515625 55.332031 0.3125 C 55.710938 0.105469 56.183594 0 56.753906 0 C 56.957031 0 57.136719 0.015625 57.296875 0.046875 C 57.457031 0.078125 57.59375 0.121094 57.699219 0.167969 C 57.8125 0.210938 57.894531 0.257812 57.953125 0.304688 C 58.011719 0.351562 58.042969 0.390625 58.042969 0.425781 C 58.042969 0.492188 58.019531 0.535156 57.980469 0.550781 C 57.9375 0.5625 57.886719 0.566406 57.828125 0.566406 C 57.726562 0.566406 57.589844 0.554688 57.417969 0.527344 C 57.253906 0.5 57.058594 0.488281 56.835938 0.488281 C 56.078125 0.488281 55.546875 0.675781 55.242188 1.054688 C 54.945312 1.433594 54.792969 2.015625 54.792969 2.800781 C 54.792969 2.933594 54.800781 3.078125 54.8125 3.230469 C 54.820312 3.386719 54.835938 3.539062 54.851562 3.6875 C 54.867188 3.835938 54.882812 3.976562 54.898438 4.105469 C 54.921875 4.269531 54.953125 4.382812 55.003906 4.441406 C 55.050781 4.5 55.113281 4.527344 55.195312 4.527344 C 55.265625 4.527344 55.417969 4.5 55.660156 4.441406 C 55.898438 4.375 56.183594 4.292969 56.515625 4.191406 C 56.769531 4.113281 57.035156 4.035156 57.308594 3.960938 C 57.578125 3.878906 57.820312 3.8125 58.035156 3.761719 C 58.246094 3.707031 58.398438 3.679688 58.484375 3.679688 C 58.550781 3.679688 58.601562 3.691406 58.632812 3.710938 C 58.671875 3.734375 58.691406 3.769531 58.691406 3.816406 C 58.691406 3.890625 58.632812 3.953125 58.523438 4 C 58.414062 4.046875 58.1875 4.125 57.835938 4.230469 C 57.605469 4.300781 57.316406 4.390625 56.960938 4.503906 C 56.617188 4.609375 56.179688 4.75 55.660156 4.921875 C 55.433594 4.988281 55.285156 5.054688 55.210938 5.121094 C 55.140625 5.183594 55.105469 5.269531 55.105469 5.375 C 55.105469 5.5 55.121094 5.710938 55.15625 6.015625 C 55.1875 6.316406 55.226562 6.660156 55.273438 7.054688 C 55.324219 7.449219 55.367188 7.851562 55.410156 8.257812 C 55.457031 8.660156 55.5 9.035156 55.53125 9.375 C 55.5625 9.710938 55.578125 9.96875 55.578125 10.152344 C 55.578125 10.425781 55.558594 10.605469 55.515625 10.695312 C 55.472656 10.785156 55.414062 10.832031 55.339844 10.832031 Z M 16.191406 2.621094 C 14.355469 1.683594 12.222656 1.210938 9.792969 1.210938 L 0 1.210938 L 0 23.613281 L 9.792969 23.613281 C 12.222656 23.613281 14.355469 23.144531 16.191406 22.203125 C 18.027344 21.265625 19.457031 19.964844 20.480469 18.300781 C 21.503906 16.617188 22.015625 14.652344 22.015625 12.414062 C 22.015625 10.152344 21.503906 8.1875 20.480469 6.523438 C 19.457031 4.859375 18.027344 3.558594 16.191406 2.621094 Z M 13.953125 19.132812 C 12.734375 19.773438 11.285156 20.09375 9.601562 20.09375 L 4.160156 20.09375 L 4.160156 4.734375 L 9.601562 4.734375 C 11.285156 4.734375 12.734375 5.050781 13.953125 5.691406 C 15.1875 6.332031 16.136719 7.230469 16.800781 8.378906 C 17.484375 9.511719 17.824219 10.855469 17.824219 12.414062 C 17.824219 13.949219 17.484375 15.292969 16.800781 16.445312 C 16.136719 17.597656 15.1875 18.492188 13.953125 19.132812 Z M 32.101562 23.070312 C 33.574219 23.644531 35.183594 23.933594 36.933594 23.933594 C 38.660156 23.933594 40.25 23.644531 41.703125 23.070312 C 43.171875 22.492188 44.453125 21.691406 45.542969 20.667969 C 46.628906 19.644531 47.472656 18.429688 48.070312 17.019531 C 48.667969 15.613281 48.964844 14.078125 48.964844 12.414062 C 48.964844 10.75 48.667969 9.222656 48.070312 7.835938 C 47.472656 6.429688 46.628906 5.210938 45.542969 4.1875 C 44.453125 3.144531 43.171875 2.332031 41.703125 1.757812 C 40.25 1.179688 38.652344 0.894531 36.902344 0.894531 C 35.171875 0.894531 33.574219 1.179688 32.101562 1.757812 C 30.628906 2.332031 29.347656 3.144531 28.261719 4.1875 C 27.171875 5.210938 26.332031 6.429688 25.734375 7.835938 C 25.136719 9.222656 24.835938 10.75 24.835938 12.414062 C 24.835938 14.078125 25.136719 15.613281 25.734375 17.019531 C 26.332031 18.40625 27.171875 19.625 28.261719 20.667969 C 29.347656 21.691406 30.628906 22.492188 32.101562 23.070312 Z M 40.039062 19.707031 C 39.078125 20.09375 38.03125 20.285156 36.902344 20.285156 C 35.769531 20.285156 34.726562 20.09375 33.765625 19.707031 C 32.804688 19.324219 31.972656 18.78125 31.269531 18.078125 C 30.566406 17.351562 30.011719 16.507812 29.605469 15.546875 C 29.222656 14.589844 29.03125 13.542969 29.03125 12.414062 C 29.03125 11.261719 29.222656 10.214844 29.605469 9.277344 C 30.011719 8.316406 30.566406 7.484375 31.269531 6.78125 C 31.996094 6.054688 32.828125 5.5 33.765625 5.117188 C 34.726562 4.734375 35.769531 4.539062 36.902344 4.539062 C 38.03125 4.539062 39.078125 4.734375 40.039062 5.117188 C 40.996094 5.5 41.828125 6.054688 42.535156 6.78125 C 43.238281 7.484375 43.78125 8.316406 44.164062 9.277344 C 44.570312 10.214844 44.773438 11.261719 44.773438 12.414062 C 44.773438 13.566406 44.570312 14.621094 44.164062 15.582031 C 43.78125 16.519531 43.238281 17.351562 42.535156 18.078125 C 41.828125 18.78125 40.996094 19.324219 40.039062 19.707031 Z M 89.824219 16.378906 L 77.472656 1.210938 L 74.046875 1.210938 L 74.046875 23.613281 L 78.175781 23.613281 L 78.175781 8.445312 L 90.527344 23.613281 L 93.953125 23.613281 L 93.953125 1.210938 L 89.824219 1.210938 Z M 106.867188 1.210938 L 96.785156 23.613281 L 101.074219 23.613281 L 103.292969 18.429688 L 114.496094 18.429688 L 116.722656 23.613281 L 121.074219 23.613281 L 110.960938 1.210938 Z M 113.09375 15.164062 L 108.882812 5.363281 L 104.691406 15.164062 Z M 157.929688 23.070312 C 159.402344 23.644531 161.015625 23.933594 162.761719 23.933594 C 164.492188 23.933594 166.082031 23.644531 167.53125 23.070312 C 169.003906 22.492188 170.28125 21.691406 171.371094 20.667969 C 172.460938 19.644531 173.300781 18.429688 173.898438 17.019531 C 174.496094 15.613281 174.796875 14.078125 174.796875 12.414062 C 174.796875 10.75 174.496094 9.222656 173.898438 7.835938 C 173.300781 6.429688 172.460938 5.210938 171.371094 4.1875 C 170.28125 3.144531 169.003906 2.332031 167.53125 1.757812 C 166.082031 1.179688 164.480469 0.894531 162.730469 0.894531 C 161.003906 0.894531 159.402344 1.179688 157.929688 1.757812 C 156.460938 2.332031 155.179688 3.144531 154.089844 4.1875 C 153.003906 5.210938 152.160156 6.429688 151.5625 7.835938 C 150.964844 9.222656 150.667969 10.75 150.667969 12.414062 C 150.667969 14.078125 150.964844 15.613281 151.5625 17.019531 C 152.160156 18.40625 153.003906 19.625 154.089844 20.667969 C 155.179688 21.691406 156.460938 22.492188 157.929688 23.070312 Z M 165.867188 19.707031 C 164.90625 20.09375 163.863281 20.285156 162.730469 20.285156 C 161.601562 20.285156 160.554688 20.09375 159.59375 19.707031 C 158.636719 19.324219 157.804688 18.78125 157.097656 18.078125 C 156.394531 17.351562 155.839844 16.507812 155.433594 15.546875 C 155.050781 14.589844 154.859375 13.542969 154.859375 12.414062 C 154.859375 11.261719 155.050781 10.214844 155.433594 9.277344 C 155.839844 8.316406 156.394531 7.484375 157.097656 6.78125 C 157.824219 6.054688 158.65625 5.5 159.59375 5.117188 C 160.554688 4.734375 161.601562 4.539062 162.730469 4.539062 C 163.863281 4.539062 164.90625 4.734375 165.867188 5.117188 C 166.828125 5.5 167.660156 6.054688 168.363281 6.78125 C 169.066406 7.484375 169.609375 8.316406 169.996094 9.277344 C 170.402344 10.214844 170.601562 11.261719 170.601562 12.414062 C 170.601562 13.566406 170.402344 14.621094 169.996094 15.582031 C 169.609375 16.519531 169.066406 17.351562 168.363281 18.078125 C 167.660156 18.78125 166.828125 19.324219 165.867188 19.707031 Z M 194.980469 16.378906 L 182.628906 1.210938 L 179.203125 1.210938 L 179.203125 23.613281 L 183.332031 23.613281 L 183.332031 8.445312 L 195.683594 23.613281 L 199.109375 23.613281 L 199.109375 1.210938 L 194.980469 1.210938 Z M 60.328125 15.816406 C 60.855469 15.949219 61.410156 16.015625 61.992188 16.015625 C 62.824219 16.015625 63.535156 15.886719 64.128906 15.632812 C 64.71875 15.375 65.203125 15.039062 65.582031 14.617188 C 65.960938 14.195312 66.238281 13.726562 66.414062 13.214844 C 66.597656 12.699219 66.6875 12.183594 66.6875 11.664062 C 66.6875 10.921875 66.546875 10.300781 66.265625 9.792969 C 65.988281 9.285156 65.617188 8.878906 65.160156 8.578125 C 64.707031 8.273438 64.210938 8.054688 63.671875 7.921875 C 63.132812 7.789062 62.605469 7.71875 62.085938 7.71875 C 61.472656 7.71875 60.894531 7.8125 60.351562 7.992188 C 59.808594 8.167969 59.328125 8.441406 58.910156 8.808594 C 58.5 9.175781 58.179688 9.644531 57.945312 10.207031 C 57.710938 10.773438 57.589844 11.441406 57.589844 12.214844 C 57.589844 12.921875 57.710938 13.515625 57.945312 14 C 58.183594 14.484375 58.507812 14.878906 58.917969 15.175781 C 59.332031 15.46875 59.800781 15.683594 60.328125 15.816406 Z M 63.917969 15.128906 C 63.398438 15.363281 62.757812 15.480469 62.007812 15.480469 C 61.15625 15.480469 60.441406 15.351562 59.871094 15.097656 C 59.304688 14.839844 58.878906 14.464844 58.589844 13.96875 C 58.308594 13.472656 58.167969 12.871094 58.167969 12.160156 C 58.167969 11.265625 58.351562 10.527344 58.71875 9.953125 C 59.085938 9.371094 59.566406 8.9375 60.152344 8.65625 C 60.738281 8.375 61.355469 8.234375 62.007812 8.234375 C 62.507812 8.234375 63.003906 8.292969 63.488281 8.417969 C 63.972656 8.535156 64.414062 8.726562 64.808594 8.992188 C 65.203125 9.257812 65.515625 9.609375 65.75 10.046875 C 65.992188 10.480469 66.113281 11.011719 66.113281 11.640625 C 66.113281 12.074219 66.035156 12.511719 65.886719 12.960938 C 65.742188 13.410156 65.507812 13.824219 65.183594 14.207031 C 64.863281 14.585938 64.441406 14.894531 63.917969 15.128906 Z M 66.941406 23.761719 C 66.890625 23.761719 66.84375 23.734375 66.796875 23.679688 C 66.753906 23.632812 66.710938 23.5625 66.667969 23.472656 C 66.625 23.382812 66.585938 23.277344 66.546875 23.160156 C 66.484375 22.953125 66.421875 22.710938 66.363281 22.433594 C 66.308594 22.152344 66.261719 21.859375 66.21875 21.5625 C 66.175781 21.257812 66.144531 20.964844 66.125 20.6875 C 66.101562 20.40625 66.089844 20.160156 66.089844 19.953125 C 66.089844 19.101562 66.222656 18.386719 66.484375 17.808594 C 66.746094 17.226562 67.140625 16.789062 67.667969 16.496094 C 68.195312 16.199219 68.859375 16.050781 69.660156 16.050781 C 69.941406 16.050781 70.203125 16.066406 70.445312 16.105469 C 70.6875 16.136719 70.902344 16.183594 71.082031 16.242188 C 71.269531 16.300781 71.414062 16.363281 71.515625 16.433594 C 71.621094 16.503906 71.675781 16.574219 71.675781 16.648438 C 71.675781 16.675781 71.667969 16.703125 71.652344 16.730469 C 71.636719 16.757812 71.613281 16.777344 71.585938 16.792969 C 71.5625 16.808594 71.53125 16.816406 71.5 16.816406 C 71.328125 16.816406 71.089844 16.773438 70.789062 16.679688 C 70.484375 16.589844 70.054688 16.546875 69.5 16.546875 C 68.511719 16.546875 67.792969 16.855469 67.339844 17.480469 C 66.886719 18.101562 66.660156 18.902344 66.660156 19.890625 C 66.660156 20.230469 66.675781 20.5625 66.707031 20.882812 C 66.738281 21.195312 66.78125 21.496094 66.828125 21.777344 C 66.875 22.058594 66.921875 22.316406 66.964844 22.546875 C 67.011719 22.773438 67.050781 22.972656 67.082031 23.136719 C 67.117188 23.296875 67.132812 23.414062 67.132812 23.488281 C 67.132812 23.613281 67.109375 23.6875 67.066406 23.714844 C 67.023438 23.746094 66.980469 23.761719 66.941406 23.761719 Z M 127.34375 4.734375 L 127.34375 23.613281 L 131.503906 23.613281 L 131.503906 4.734375 L 138.925781 4.734375 L 138.925781 1.210938 L 119.917969 1.210938 L 119.917969 4.734375 Z M 142.046875 1.210938 L 142.046875 23.613281 L 146.207031 23.613281 L 146.207031 1.210938 Z M 142.046875 1.210938 "/>
</g>
</svg>
