<svg width="75" height="10" viewBox="0 0 75 10" fill="none" xmlns="http://www.w3.org/2000/svg">
<path fill-rule="evenodd" clip-rule="evenodd" d="M20.233 4.147C20.249 4.183 20.275 4.201 20.311 4.201C20.339 4.201 20.361 4.184 20.377 4.15C20.393 4.116 20.401 4.048 20.401 3.946C20.401 3.878 20.395 3.781 20.383 3.655C20.371 3.527 20.356 3.387 20.338 3.235C20.322 3.083 20.305 2.933 20.287 2.785C20.269 2.637 20.254 2.507 20.242 2.395C20.23 2.281 20.224 2.201 20.224 2.155C20.224 2.115 20.237 2.083 20.263 2.059C20.291 2.035 20.347 2.01 20.431 1.984C20.627 1.92 20.79 1.868 20.92 1.828C21.052 1.786 21.161 1.752 21.247 1.726C21.379 1.686 21.465 1.657 21.505 1.639C21.547 1.621 21.568 1.598 21.568 1.57C21.568 1.552 21.561 1.539 21.547 1.531C21.535 1.523 21.516 1.519 21.49 1.519C21.458 1.519 21.402 1.529 21.322 1.549C21.242 1.569 21.151 1.594 21.049 1.624C20.947 1.652 20.848 1.681 20.752 1.711C20.628 1.749 20.521 1.78 20.431 1.804C20.341 1.826 20.283 1.837 20.257 1.837C20.227 1.837 20.203 1.826 20.185 1.804C20.167 1.782 20.154 1.74 20.146 1.678C20.14 1.63 20.134 1.578 20.128 1.522C20.122 1.466 20.117 1.409 20.113 1.351C20.109 1.293 20.107 1.239 20.107 1.189C20.107 0.895 20.163 0.677 20.275 0.535C20.389 0.393 20.588 0.322 20.872 0.322C20.956 0.322 21.029 0.327 21.091 0.337C21.155 0.347 21.206 0.352 21.244 0.352C21.266 0.352 21.285 0.35 21.301 0.346C21.317 0.34 21.325 0.324 21.325 0.298C21.325 0.286 21.314 0.271 21.292 0.253C21.27 0.235 21.238 0.218 21.196 0.202C21.156 0.184 21.106 0.169 21.046 0.157C20.986 0.145 20.918 0.139 20.842 0.139C20.628 0.139 20.45 0.178 20.308 0.256C20.168 0.332 20.063 0.444 19.993 0.592C19.925 0.738 19.891 0.918 19.891 1.132C19.891 1.206 19.895 1.28 19.903 1.354L19.927 1.57C19.935 1.642 19.939 1.713 19.939 1.783C19.939 1.833 19.933 1.869 19.921 1.891C19.909 1.913 19.889 1.928 19.861 1.936C19.811 1.95 19.735 1.97 19.633 1.996C19.533 2.02 19.435 2.044 19.339 2.068C19.245 2.092 19.182 2.11 19.15 2.122C19.1 2.142 19.063 2.161 19.039 2.179C19.015 2.195 19.003 2.213 19.003 2.233C19.003 2.247 19.006 2.259 19.012 2.269C19.02 2.277 19.029 2.283 19.039 2.287C19.049 2.291 19.059 2.293 19.069 2.293C19.101 2.293 19.148 2.284 19.21 2.266C19.272 2.248 19.363 2.226 19.483 2.2C19.601 2.174 19.692 2.155 19.756 2.143C19.822 2.131 19.871 2.125 19.903 2.125C19.935 2.125 19.958 2.132 19.972 2.146C19.986 2.158 19.995 2.178 19.999 2.206C20.009 2.266 20.022 2.355 20.038 2.473C20.056 2.591 20.074 2.723 20.092 2.869C20.11 3.015 20.127 3.162 20.143 3.31C20.159 3.456 20.173 3.589 20.185 3.709C20.197 3.829 20.204 3.921 20.206 3.985C20.21 4.059 20.219 4.113 20.233 4.147ZM0.128 9V0.599999H3.8C4.712 0.599999 5.512 0.776 6.2 1.128C6.888 1.48 7.424 1.968 7.808 2.592C8.192 3.216 8.384 3.952 8.384 4.8C8.384 5.64 8.192 6.376 7.808 7.008C7.424 7.632 6.888 8.12 6.2 8.472C5.512 8.824 4.712 9 3.8 9H0.128ZM1.688 7.68H3.728C4.36 7.68 4.904 7.56 5.36 7.32C5.824 7.08 6.18 6.744 6.428 6.312C6.684 5.88 6.812 5.376 6.812 4.8C6.812 4.216 6.684 3.712 6.428 3.288C6.18 2.856 5.824 2.52 5.36 2.28C4.904 2.04 4.36 1.92 3.728 1.92H1.688V7.68ZM13.9781 9.12C13.3221 9.12 12.7181 9.012 12.1661 8.796C11.6141 8.58 11.1341 8.28 10.7261 7.896C10.3181 7.504 10.0021 7.048 9.77806 6.528C9.55406 6 9.44206 5.424 9.44206 4.8C9.44206 4.176 9.55406 3.604 9.77806 3.084C10.0021 2.556 10.3181 2.1 10.7261 1.716C11.1341 1.324 11.6141 1.02 12.1661 0.804C12.7181 0.588 13.3181 0.48 13.9661 0.48C14.6221 0.48 15.2221 0.588 15.7661 0.804C16.3181 1.02 16.7981 1.324 17.2061 1.716C17.6141 2.1 17.9301 2.556 18.1541 3.084C18.3781 3.604 18.4901 4.176 18.4901 4.8C18.4901 5.424 18.3781 6 18.1541 6.528C17.9301 7.056 17.6141 7.512 17.2061 7.896C16.7981 8.28 16.3181 8.58 15.7661 8.796C15.2221 9.012 14.6261 9.12 13.9781 9.12ZM13.9661 7.752C14.3901 7.752 14.7821 7.68 15.1421 7.536C15.5021 7.392 15.8141 7.188 16.0781 6.924C16.3421 6.652 16.5461 6.34 16.6901 5.988C16.8421 5.628 16.9181 5.232 16.9181 4.8C16.9181 4.368 16.8421 3.976 16.6901 3.624C16.5461 3.264 16.3421 2.952 16.0781 2.688C15.8141 2.416 15.5021 2.208 15.1421 2.064C14.7821 1.92 14.3901 1.848 13.9661 1.848C13.5421 1.848 13.1501 1.92 12.7901 2.064C12.4381 2.208 12.1261 2.416 11.8541 2.688C11.5901 2.952 11.3821 3.264 11.2301 3.624C11.0861 3.976 11.0141 4.368 11.0141 4.8C11.0141 5.224 11.0861 5.616 11.2301 5.976C11.3821 6.336 11.5901 6.652 11.8541 6.924C12.1181 7.188 12.4301 7.392 12.7901 7.536C13.1501 7.68 13.5421 7.752 13.9661 7.752ZM27.128 0.599999H28.412L33.044 6.28712V0.599999H34.592V9H33.308L28.676 3.31287V9H27.128V0.599999ZM39.4348 0.599999H40.9708L44.7628 9H43.1308L42.2959 7.056H38.0947L37.2628 9H35.6548L39.4348 0.599999ZM40.1914 2.15581L41.7703 5.832H38.6184L40.1914 2.15581ZM47.1133 9V1.92H44.3293V0.599999H51.4573V1.92H48.6733V9H47.1133ZM52.628 0.599999H54.188V9H52.628V0.599999ZM60.396 9.12C59.74 9.12 59.136 9.012 58.584 8.796C58.032 8.58 57.552 8.28 57.144 7.896C56.736 7.504 56.42 7.048 56.196 6.528C55.972 6 55.86 5.424 55.86 4.8C55.86 4.176 55.972 3.604 56.196 3.084C56.42 2.556 56.736 2.1 57.144 1.716C57.552 1.324 58.032 1.02 58.584 0.804C59.136 0.588 59.736 0.48 60.384 0.48C61.04 0.48 61.64 0.588 62.184 0.804C62.736 1.02 63.216 1.324 63.624 1.716C64.032 2.1 64.348 2.556 64.572 3.084C64.796 3.604 64.908 4.176 64.908 4.8C64.908 5.424 64.796 6 64.572 6.528C64.348 7.056 64.032 7.512 63.624 7.896C63.216 8.28 62.736 8.58 62.184 8.796C61.64 9.012 61.044 9.12 60.396 9.12ZM60.384 7.752C60.808 7.752 61.2 7.68 61.56 7.536C61.92 7.392 62.232 7.188 62.496 6.924C62.76 6.652 62.964 6.34 63.108 5.988C63.26 5.628 63.336 5.232 63.336 4.8C63.336 4.368 63.26 3.976 63.108 3.624C62.964 3.264 62.76 2.952 62.496 2.688C62.232 2.416 61.92 2.208 61.56 2.064C61.2 1.92 60.808 1.848 60.384 1.848C59.96 1.848 59.568 1.92 59.208 2.064C58.856 2.208 58.544 2.416 58.272 2.688C58.008 2.952 57.8 3.264 57.648 3.624C57.504 3.976 57.432 4.368 57.432 4.8C57.432 5.224 57.504 5.616 57.648 5.976C57.8 6.336 58.008 6.652 58.272 6.924C58.536 7.188 58.848 7.392 59.208 7.536C59.568 7.68 59.96 7.752 60.384 7.752ZM66.5616 0.599999H67.8456L72.4776 6.28712V0.599999H74.0256V9H72.7416L68.1096 3.31288V9H66.5616V0.599999ZM22.749 6.141C22.531 6.141 22.323 6.116 22.125 6.066C21.927 6.016 21.751 5.936 21.597 5.826C21.443 5.714 21.321 5.567 21.231 5.385C21.143 5.203 21.099 4.98 21.099 4.716C21.099 4.426 21.143 4.175 21.231 3.963C21.319 3.751 21.44 3.576 21.594 3.438C21.75 3.3 21.93 3.198 22.134 3.132C22.338 3.064 22.555 3.03 22.785 3.03C22.979 3.03 23.177 3.055 23.379 3.105C23.581 3.155 23.767 3.237 23.937 3.351C24.109 3.465 24.247 3.617 24.351 3.807C24.457 3.997 24.51 4.231 24.51 4.509C24.51 4.703 24.476 4.897 24.408 5.091C24.342 5.283 24.238 5.458 24.096 5.616C23.954 5.774 23.772 5.901 23.55 5.997C23.328 6.093 23.061 6.141 22.749 6.141ZM22.755 5.94C23.037 5.94 23.276 5.896 23.472 5.808C23.668 5.72 23.826 5.605 23.946 5.463C24.068 5.319 24.156 5.163 24.21 4.995C24.266 4.827 24.294 4.662 24.294 4.5C24.294 4.264 24.249 4.065 24.159 3.903C24.071 3.739 23.953 3.607 23.805 3.507C23.657 3.407 23.492 3.335 23.31 3.291C23.128 3.245 22.943 3.222 22.755 3.222C22.511 3.222 22.279 3.275 22.059 3.381C21.839 3.487 21.66 3.649 21.522 3.867C21.384 4.083 21.315 4.359 21.315 4.695C21.315 4.961 21.368 5.187 21.474 5.373C21.582 5.559 21.742 5.7 21.954 5.796C22.168 5.892 22.435 5.94 22.755 5.94ZM24.465 9.009C24.483 9.029 24.501 9.039 24.519 9.039C24.535 9.039 24.551 9.033 24.567 9.021C24.583 9.011 24.591 8.983 24.591 8.937C24.591 8.909 24.585 8.865 24.573 8.805C24.561 8.743 24.546 8.669 24.528 8.583C24.512 8.497 24.495 8.401 24.477 8.295C24.459 8.189 24.444 8.077 24.432 7.959C24.42 7.839 24.414 7.715 24.414 7.587C24.414 7.217 24.499 6.916 24.669 6.684C24.839 6.45 25.109 6.333 25.479 6.333C25.687 6.333 25.848 6.35 25.962 6.384C26.076 6.418 26.165 6.435 26.229 6.435C26.241 6.435 26.252 6.432 26.262 6.426C26.272 6.42 26.28 6.412 26.286 6.402C26.292 6.392 26.295 6.382 26.295 6.372C26.295 6.344 26.275 6.317 26.235 6.291C26.197 6.265 26.143 6.241 26.073 6.219C26.005 6.197 25.925 6.18 25.833 6.168C25.743 6.154 25.645 6.147 25.539 6.147C25.239 6.147 24.99 6.203 24.792 6.315C24.594 6.425 24.446 6.589 24.348 6.807C24.25 7.023 24.201 7.291 24.201 7.611C24.201 7.689 24.205 7.781 24.213 7.887C24.221 7.991 24.233 8.1 24.249 8.214C24.265 8.326 24.283 8.435 24.303 8.541C24.325 8.645 24.348 8.736 24.372 8.814C24.386 8.858 24.401 8.897 24.417 8.931C24.433 8.965 24.449 8.991 24.465 9.009Z" fill="black"/>
</svg>
